# xmcd CD database file
#
# Track frame offsets:
#	150
#	10881
#	24000
#	36643
#	52521
#	74798
#	91045
#	102483
#	121346
#	134192
#	148200
#	160012
#	179923
#	193068
#	206960
#	221316
#	235042
#	256317
#	278232
#	290201
#	302233
#	327193
#	340826
#	351476
#
# Disc length: 4791 seconds
#
# Revision: 0
# Processed by: cddbd v1.5.2PL0 Copyright (c) Steve Scherf et al.
# Submitted via: CDex 1.70beta2
#
DISCID=8112b518
DTITLE=Carmen McRae - 1961
DYEAR=1900
DGENRE=Jazz
TTITLE0=Trav'lin' light
TTITLE1=I cried for you
TTITLE2=Them there eyes
TTITLE3=God bless the child
TTITLE4=Yesterdays
TTITLE5=What a little moonlight can do
TTITLE6=Miss Brown to you
TTITLE7=My man
TTITLE8=Strange fruit
TTITLE9=Some other spring
TTITLE10=I'm gonna lock my heart
TTITLE11=Lover man
TTITLE12=When i was young
TTITLE13=In your own sweet way
TTITLE14=Too young for grovwing old
TTITLE15=Ode to a cowboy
TTITLE16=There'll be no tomorrow
TTITLE17=Melanctha
TTITLE18=It's raggy waltz
TTITLE19=Oh, so blue
TTITLE20=Lord, lord
TTITLE21=Travellin' blues
TTITLE22=Take five
TTITLE23=Easy as you go
EXTD=
EXTT0=
EXTT1=
EXTT2=
EXTT3=
EXTT4=
EXTT5=
EXTT6=
EXTT7=
EXTT8=
EXTT9=
EXTT10=
EXTT11=
EXTT12=
EXTT13=
EXTT14=
EXTT15=
EXTT16=
EXTT17=
EXTT18=
EXTT19=
EXTT20=
EXTT21=
EXTT22=
EXTT23=
PLAYORDER=
